<svg xmlns="http://www.w3.org/2000/svg" fill="none" viewBox="0 0 200 200">
  <g clip-path="url(#a)">
    <circle cx="41.5" cy="41.5" r="12.5" fill="#E0E0DB"/>
    <mask id="b" fill="#fff">
      <path d="M33.4598 51.0904c1.2423 1.073 2.6837 1.8908 4.2421 2.4068 1.5583.5159 3.203.7199 4.8401.6002 1.6372-.1197 3.2348-.5607 4.7015-1.2978 1.4667-.7371 2.7739-1.7559 3.8469-2.9981 1.073-1.2423 1.8908-2.6838 2.4068-4.2421.5159-1.5583.7198-3.203.6001-4.8402-.1196-1.6372-.5606-3.2347-1.2977-4.7014-.7371-1.4668-1.7559-2.7739-2.9982-3.847l-8.1708 9.4598-8.1708 9.4598Z"/>
    </mask>
    <path fill="#959691" fill-opacity=".5" stroke="#959690" stroke-opacity=".5" stroke-width="2" d="M33.4598 51.0904c1.2423 1.073 2.6837 1.8908 4.2421 2.4068 1.5583.5159 3.203.7199 4.8401.6002 1.6372-.1197 3.2348-.5607 4.7015-1.2978 1.4667-.7371 2.7739-1.7559 3.8469-2.9981 1.073-1.2423 1.8908-2.6838 2.4068-4.2421.5159-1.5583.7198-3.203.6001-4.8402-.1196-1.6372-.5606-3.2347-1.2977-4.7014-.7371-1.4668-1.7559-2.7739-2.9982-3.847l-8.1708 9.4598-8.1708 9.4598Z" mask="url(#b)"/>
    <path fill="#959691" fill-opacity=".5" d="M49.4042 32.4928c-.0042-.0014-.0105-.0044-.0148-.0044.0031.0031.0061.0059.009.0084.0117.0114.0259.0251.0396.0378.0081.0019.0162.0036.0228.0077.0138.0086.0312.0097.0404.0221.0089.0121.0273.0176.039.0338.0148.0206.0338.028.0462.0417.0126.0138.0306.0241.0424.0346.0088.0077-.0273-.0143-.0435-.0267-.0207-.0157-.0384-.0319-.0541-.0423l-.0469-.0312c-.0098-.0066-.0277-.0223-.0463-.0397-.0112-.0026-.0225-.0057-.0293-.0164-.0063-.01-.0229-.029-.0274-.0381-.0019-.004-.0016-.0061.0028-.0048.012.0034.0238.0076.0296.0094.0017-.0002.0031 0 .0035.0003.0009.0009-.0005.0006-.0035-.0003-.0017.0002-.0037.0007-.005.0017-.0025.002-.0026.0071-.0045.0064Z"/>
    <path stroke="#959690" stroke-linecap="round" stroke-opacity=".5" d="M49.3905 32.5c-.0013 0-.0025 0-.0039-.0019-.0013-.002-.0026-.0058-.0013-.0078.003-.0047.013.0006.0189.0025.0019.0007.002-.0044.0045-.0064.0026-.002.0078-.002.0085-.0014.0027.0025-.0149-.0045-.0331-.0097-.0146-.0043.0155.0285.0246.0429.0117.0184.0364.0143.0521.0241.0138.0086.0312.0097.0404.0221.0089.0121.0273.0176.039.0338.0148.0206.0338.028.0462.0417.0126.0138.0306.0241.0424.0346.0088.0077-.0273-.0143-.0435-.0267-.0207-.0157-.0384-.0319-.0541-.0423-.0156-.0104-.0312-.0208-.0469-.0312-.0171-.0115-.0583-.0505-.0859-.0775-.0144-.0124-.0325-.0331-.045-.0514-.0006-.004.0006-.0078.0059-.0118M33.8398 50.6719c-.0052.0051-.0129.0233-.0246.037-.0119.0139-.0339-.007-.0495-.0175-.0157-.0104-.0312-.0208-.043-.0351-.0119-.0145-.0234-.0286-.0384-.0397-.0141-.0104-.0254-.0228-.0391-.0319-.0058-.0065-.0123-.0131-.0201-.0183-.004-.0026-.0078-.0051-.0157-.0156"/>
    <path fill="#E0E0DB" d="M32.6798 50.3473c.858.752 1.9202 1.2541 3.126 1.4775 1.2058.2235 2.5315.164 3.9016-.1752 1.37-.3391 2.7576-.9512 4.0833-1.8013 1.3257-.8501 2.5638-1.9216 3.6433-3.1532 1.0796-1.2317 1.9797-2.5994 2.6488-4.0251s1.0941-2.8814 1.2508-4.2841c.1567-1.4027.0421-2.7248-.3374-3.8909-.3795-1.1662-1.0165-2.1534-1.8744-2.9055l-8.221 9.3789-8.221 9.3789Z"/>
    <path fill="#88F17F" d="M104.267 107.707c.391-.39 1.024-.39 1.414 0l90.611 90.586c.63.63.184 1.707-.707 1.707H14.4137c-.8908 0-1.337-1.077-.7072-1.707l90.5605-90.586Z"/>
    <path stroke="#8EC488" stroke-width="10" d="m102.591 112.015 85 84.5"/>
    <circle cx="149.091" cy="179.515" r="20" fill="#8EC488"/>
    <path stroke="#8EC488" stroke-width="10" d="M22.0908 195.015H174.091"/>
    <path fill="#88F17F" d="M115.269 187.303c2.269 1.324 4.777 2.187 7.381 2.538 2.605.351 5.255.184 7.8-.491 2.544-.675 4.933-1.845 7.03-3.444 2.097-1.599 3.861-3.594 5.192-5.873 1.33-2.279 2.2-4.796 2.561-7.408.361-2.613.205-5.268-.458-7.816-.663-2.547-1.821-4.937-3.408-7.033-1.586-2.095-3.57-3.855-5.839-5.179l-10.129 17.353-10.13 17.353Z"/>
    <path stroke="#8EC488" stroke-width="2" d="m133.407 189.463-9 3M130.63 190.509l-9.434.997"/>
    <path stroke="#8EC488" stroke-linecap="round" d="M191.713 199.523c.22.018.289.024.382.029.075.004.149.014.334.016.049 0 .073-.008.101-.01.013 0 .022-.004.416-.006.394-.001 1.173-.001 1.58-.003.407-.002.42-.005.431-.006.011-.002.02-.002.029-.002M184.774 199.522c-.084-.012-.152-.018-.276-.026-.08-.005-.231-.001-.314 0-.084.002-.097.005-.241.006-.145.002-.422.002-.573 0-.165-.001-.286-.007-.452-.009-.077-.001-.124-.008-.181-.009-.048-.002-.178-.008-.351-.01-.083-.004-.123-.007-.165-.009-.021-.002-.039-.005-.077-.008M101.178 115.119c-.01 0-.284-.052-.705-.134-.151-.029-.174-.034-.196-.038-.022-.005-.04-.01-.06-.015M100.045 115.535c-.0712-.034-.2338-.101-.301-.144-.0581-.037-.1147-.076-.1721-.114-.0574-.039-.1336-.105-.2007-.158-.0543-.043-.1147-.086-.1721-.129-.0574-.043-.1147-.082-.1721-.127-.0553-.043-.1052-.088-.1554-.122-.0215-.024-.0454-.048-.074-.067-.0144-.009-.0286-.019-.0576-.057"/>
    <path stroke="#8EC488" stroke-linecap="square" d="M98.7441 114.54c.0167.017.0333.031.0673.049.022.011.041.023.0922.048.0314.015.064.036.0959.056.0206.013.0361.023.0528.035.0167.011.0333.022.05.033.0167.011.0306.025.0458.037.0153.013.0292.027.0417.042.0127.015.0222.033.0333.05.011.016.0237.029.0334.046.01.017.0249.03.0464.047.0227.022.041.039.0493.044.0042.002.0084.003.0168.005"/>
    <path stroke="#8EC488" d="M102.739 113.075c-.449.048-.807.098-1.06.15-.417.085-.598.107-.867.092-.234.162-.277.211-.313.235-.019.012-.037.025-.056.037"/>
    <path stroke="#8EC488" d="M100.37 113.571c-.153.159-.214.256-.254.345-.036.082-.107.181-.1682.276-.0507.078-.0674.168-.0676.241-.0001.041.0488.074.0976.102.1332.075.2992-.046.4522-.162.3-.227.399-.489.463-.768.03-.129.028-.199.007-.23-.038-.054-.144-.019-.214-.003-.207.045-.444.308-.539.416-.138.155-.3764.357-.5355.529-.0683.073-.1408.171-.2204.242-.0222.019-.019-.009-.0068-.033.0122-.025.0304-.049.0489-.068.0184-.018.0366-.03.0553-.043"/>
    <path stroke="#8EC488" stroke-linecap="round" d="M99.7274 115.131c0 .007 0 .013-.0091.013s-.0273-.006-.0397-.022c-.0556-.068-.0551-.155-.0827-.229-.0293-.078-.0885-.183-.156-.291-.0452-.072-.0675-.131-.0857-.162-.038-.063-.1406-.055-.2355-.07-.0178-.003-.0156-.028-.0096-.025.1095.131.2876.309.3242.342.0185.016.0367.028.0554.059"/>
    <path stroke="#8EC488" stroke-linecap="round" d="M99.2784 114.425c-.0091-.003-.0376-.026-.0618-.061-.0151-.021-.0254-.037-.0319-.052-.0063-.015-.0091-.032-.0202-.047-.011-.015-.0241-.028-.0313-.043-.0074-.016-.0111-.032-.0182-.047-.0035-.008-.0046-.016-.002-.024.0071-.024.0402-.039.0605-.051.0176-.011.0345-.016.0508-.027.0187-.012.0345-.025.0508-.038.02-.017.0397-.036.074-.072.0832-.086.1037-.097.131-.122.0208-.019.0559-.049.0886-.076.016-.013.0299-.028.0482-.043.0077-.007.0362-.039.0798-.082.0209-.021.0309-.029.0619-.059.0264-.025.0774-.068.1065-.095.0547-.051.0773-.083.1059-.114.044-.049.074-.084.114-.13.034-.04.1-.109.159-.167.06-.057.113-.101.156-.133.073-.055.115-.077.132-.088.043-.028.074-.036.125-.059.041-.019.089-.039.122-.053.046-.019.101-.046.131-.064.022-.019.036-.029.044-.034.004-.003.008-.006.02-.012"/>
    <path stroke="#8EC488" stroke-linecap="round" d="M101.837 112.042c-.001 0-.003 0-.154.122-.152.122-.453.365-.719.568-.267.203-.488.358-.637.471-.149.113-.219.18-.268.223-.05.043-.0769.06-.0825.05-.0056-.011.0112-.048.1515-.221.141-.172.405-.479.598-.687.193-.209.307-.309.448-.416.142-.108.308-.219.391-.27.083-.051.078-.04-.002.093-.08.132-.235.385-.386.595-.151.21-.294.37-.412.488-.117.117-.205.188-.273.238-.069.05-.115.077-.141.091-.026.013-.03.012-.019-.01.01-.022.034-.065.403-.429.37-.364 1.082-1.048 1.464-1.412.381-.364.41-.386.431-.401.022-.015.036-.023.042-.015.006.008.004.031-.053.181-.056.15-.165.425-.298.697-.134.272-.287.531-.414.724-.128.194-.224.314-.286.386-.061.072-.084.092-.098.103-.014.011-.018.011.001-.038.02-.049.062-.147.297-.529.234-.382.66-1.044.89-1.398.23-.354.252-.378.264-.393.013-.014.016-.018.008.017-.008.034-.026.108-.051.183-.024.074-.055.148-.153.313-.098.166-.262.421-.463.685-.201.264-.434.53-.581.69-.146.16-.199.206-.212.198-.013-.008.015-.073.14-.252s.345-.47.548-.71c.202-.241.38-.421.472-.511.093-.091.094-.086.093-.077-.001.01-.005.022-.009.036"/>
    <path stroke="#8EC488" stroke-linecap="round" d="M102.927 111.394c.007-.011.015-.021.223-.29.207-.269.615-.796.915-1.154.3-.358.48-.531.568-.602.087-.072.075-.037.006.097-.069.134-.195.366-.324.57-.128.204-.254.373-.384.525-.131.152-.261.282-.41.406-.15.125-.315.239-.409.303-.094.064-.112.073-.122.075-.01.003-.011-.001-.008-.016.003-.016.011-.043.025-.078.013-.035.033-.078.216-.32.183-.241.53-.681.765-.96.234-.279.347-.385.429-.457.082-.072.131-.107.154-.115.024-.008.02.011.011.041-.009.029-.024.067-.044.114-.021.047-.048.102-.107.193-.058.091-.147.217-.305.392-.158.176-.382.396-.671.637-.289.24-.636.494-.811.622-.176.129-.169.123-.097.014.072-.11.21-.324.352-.514s.284-.35.396-.464c.111-.114.189-.177.285-.244.096-.066.208-.135.275-.173.068-.039.087-.045.079-.02-.007.025-.042.082-.263.3-.222.218-.629.596-.841.791-.212.196-.216.199-.207.185.009-.014.031-.045.054-.077"/>
    <path stroke="#8EC488" stroke-linecap="round" d="M104.841 109.46c0-.001 0-.003.024-.047.024-.045.071-.132.116-.198.044-.066.084-.107.115-.136.048-.046.104-.081.156-.106.016-.008.016.009.009.026-.006.018-.018.04-.064.095-.045.055-.125.143-.162.182-.037.04-.028.028.056-.041s.243-.196.322-.257c.08-.061.076-.053.065-.04-.027.034-.064.076-.087.109-.008.012.076-.085.132-.117.053-.03.108-.034.13-.037.02-.003.043-.006.056-.018.023-.021.008-.087-.002-.102-.009-.015-.02-.028-.027-.043-.008-.017-.023-.029-.034-.043-.014-.017-.029-.036-.063-.07-.018-.019-.042-.035-.059-.048-.014-.011-.031-.02-.046-.031-.016-.01-.034-.021-.051-.031-.016-.01-.028-.022-.043-.034-.014-.01-.031-.016-.047-.024-.015-.008-.031-.013-.047-.016-.016-.004-.031-.011-.047-.016-.017-.006-.041-.007-.058-.011-.016-.004-.034-.005-.052-.008-.018-.003-.081-.004-.121-.001-.02.001-.046.012-.066.02-.015.006-.031.014-.047.023-.015.008-.038.02-.062.032-.023.012-.039.028-.055.039-.015.01-.034.023-.061.046-.044.037-.077.076-.092.092-.04.042-.099.1-.118.116-.021.019-.037.031-.057.047-.028.022-.053.046-.067.061-.034.036-.103.095-.143.132-.012.012-.055.052-.116.112-.055.055-.117.116-.131.131-.014.015-.031.035-.102.107-.047.048-.102.105-.119.123-.016.016-.026.029-.031.038-.004.005-.011.012-.021.026"/>
    <path stroke="#8EC488" stroke-linecap="round" d="M104.169 109.468c-.064.037-.09.058-.112.073-.033.021-.047.042-.064.055-.014.01-.034.02-.06.034-.017.009-.058.016-.095.03-.029.009-.054.017-.066.022-.005.002-.009.003-.017.004M103.974 109.347c-.02-.002-.038-.004-.054.001-.018.006-.028.027-.047.044-.03.028-.05.042-.071.055-.017.012-.04.03-.058.045-.019.016-.037.042-.051.058-.014.016-.029.035-.041.05-.014.019-.043.037-.062.054-.015.014-.033.032-.064.062-.026.025-.044.043-.08.08-.027.029-.059.063-.078.086-.018.021-.037.048-.058.071-.02.022-.036.047-.055.071-.023.027-.057.067-.086.099-.034.038-.06.054-.091.084-.017.015-.034.026-.054.04-.026.018-.039.034-.061.055-.027.024-.058.052-.092.085-.038.036-.069.065-.097.089-.021.019-.039.036-.07.064-.031.029-.07.056-.105.084-.027.021-.047.04-.063.051-.021.014-.041.031-.058.044-.024.018-.043.045-.062.062-.023.02-.044.043-.056.058-.014.015-.08.076-.123.127-.047.055-.104.115-.125.137-.013.016-.029.029-.044.045-.003.005-.006.01-.001.015M103.151 110.989c-.022.054-.058.107-.107.146-.047.036-.108.051-.166.082-.096.052-.211.063-.265.095-.054.031-.116.067-.174.094-.053.024-.108.049-.164.065-.064.018-.119-.056-.175-.074-.063-.021-.119.022-.161.016-.017-.003-.021-.02-.018-.034.004-.029.024-.054.024-.069 0-.051-.098.069-.15.111-.049.041-.087.092-.134.124-.052.034-.096.089-.15.13-.052.039-.099.08-.15.123-.088.073-.195.181-.243.24-.045.055-.109.125-.161.188-.045.055-.101.116-.17.186-.061.06-.159.159-.22.233-.05.062-.096.105-.143.148-.096.087-.231.24-.276.294-.053.063-.1697.16-.3381.331-.0663.067-.1146.126-.1662.168-.0516.043-.0963.097-.1412.148-.0636.073-.1299.124-.1949.182-.0582.052-.1233.103-.166.15s-.0829.096-.1299.139c-.0476.043-.0829.105-.1233.159-.0537.067-.1255.148-.1726.202-.0113.013-.0201.027-.0293.04M22.9111 197.858c-.1819-.004-.3639-.008-1.0944.034s-2.0041.13-2.7112.187c-.7072.057-.8092.079-.8862.093-.1252.022-.2116.031-.3541.054-.1066.016-.2846.031-.3605.045-.0759.013-.0448.022-.0089.027.036.004.0759.004 1.3257-.089s3.7082-.28 4.957-.373c1.2487-.094 1.2132-.09 1.1372-.087-.076.002-.1914.002-1.1871.155-.9958.153-2.8685.459-3.8798.617-1.0113.158-1.1045.158-1.1369.158-.0325 0-.0015 0 .6624.017.6639.018 1.9597.054 2.6827.085.723.032.8339.058.9.079.066.02.0837.034.0929.049.0091.016.0091.034.0003.052-.0089.018-.0267.036-.8235.031-.7968-.004-2.3722-.03-3.2303-.051-.8581-.02-.9513-.033-1.0437-.04-.1808-.014-.3924.011-.5806.04-.0685.01-.0817.015.9632-.042 1.0448-.058 3.1482-.178 4.1741-.25 1.0259-.073.9106-.095.221-.067-.6896.029-1.9499.109-2.6368.147-.687.039-.7624.035-.8146.026-.0522-.009-.0788-.022-.0925-.038-.0137-.016-.0137-.033-.0071-.058.0067-.025.02-.056.0979-.165.0778-.109.2198-.296.3906-.483s.366-.369.8727-.773c.5066-.404 1.3187-1.026 1.7947-1.403.476-.378.5914-.493.6597-.564.0683-.07.0861-.093.0819-.1-.0042-.007-.0308.002-.9453.553-.9146.55-2.7162 1.642-3.6888 2.22-.9725.577-1.0612.609-1.1158.625-.0546.016-.0724.016-.0748.004-.0025-.011.0108-.033.6744-.81s1.9772-2.308 2.7825-3.209c.8054-.902 1.0628-1.129 1.1421-1.154.0793-.026-.0272.156-.477.714-.4498.557-1.2397 1.484-1.8285 2.133-.5889.649-.9528.99-1.28 1.271-.3273.28-.6068.489-.8574.654-.2505.165-.4635.28-.5976.34-.1342.059-.183.059-.1837.008-.0007-.051.0481-.153.7877-1.124.7396-.971 2.1685-2.809 3.051-3.899.8826-1.091 1.1754-1.379 1.3241-1.515.1487-.135.1442-.108.1064.003-.0377.111-.1087.307-.2807.636-.1719.329-.4426.786-1.1079 1.683-.6653.896-1.717 2.219-2.3032 2.94-.5861.721-.6749.801-.7672.875-.1814.147-.3303.228-.4021.239-.0235.004-.0185-.037.0437-.164.0622-.127.182-.349.6343-.923.4522-.573 1.2332-1.492 1.9795-2.26.7462-.768 1.4341-1.359 1.8394-1.694.4054-.335.5075-.397.56-.42.0526-.023.0526-.006.0393.037-.0133.042-.0399.109-.1291.265-.0891.157-.24.401-.7659 1.068-.526.667-1.4224 1.75-1.933 2.392-.5106.642-.6082.81-.6496.9-.0414.089-.0237.093.5202-.419.5439-.513 1.6133-1.542 2.395-2.25.7817-.708 1.2432-1.063 1.4765-1.224.2334-.161.2245-.116.1822-.036-.0423.081-.1177.196-.6869.766-.5692.57-1.6297 1.591-2.3403 2.236-.7105.646-1.0389.885-1.2303 1.018-.1913.132-.2357.15-.1565.061.0792-.088.2833-.283.7102-.617.4269-.334 1.0703-.8 1.5305-1.113.4602-.313.7176-.459.9855-.595.2679-.135.5386-.255.7269-.328.1882-.073.2859-.095.3162-.062.0303.033-.0096.122-.0923.232-.0827.11-.207.239-.373.389-.1661.151-.3702.319-1.0989.786-.7286.466-1.9756 1.225-2.6379 1.636-.6624.411-.7023.451-.7096.471-.0072.021.0194.021.0863.012.067-.009.1735-.027 1.056-.28.8825-.253 2.5377-.741 3.4148-.995s.9259-.258.9355-.252c.0096.007-.0214.025-.1195.065-.0981.04-.2623.102-1.2921.316-1.0298.214-2.9202.578-3.8852.766-.965.187-.9472.187-.887.169.0601-.017.1622-.053.927-.253s2.1893-.564 3.0252-.796c.8359-.232 1.04-.321 1.1895-.393.2425-.117.3386-.198.3432-.227.0019-.012-.0221-.016-.0689-.018-.0469-.003-.1223-.003-.7891.117-.6668.12-1.9226.359-2.5563.483-.6336.123-.607.123.1744.017.7815-.107 2.3169-.32 3.0746-.403.7577-.083.6911-.03-.2108.251-.9018.28-2.6369.786-3.5884 1.071-.9516.285-1.0669.334-1.1197.366-.0528.032-.0395.045.6596.025.6992-.02 2.0837-.073 2.8302-.098.7465-.025.8131-.021.9739.012.1607.034.4137.096.6571.135.2435.038.4698.052.6108.056.2623.009.3207-.022.3475-.027.0133-.002.0268.005.0137.009-.0509.018-.1386.014-.2835.034-.1015.014-.2558.06-.5067.091-.2508.032-.5925.054-.7929.061-.3218.011-.3934-.015-.5647-.026-.1445-.01-.4064-.016-.7632.004-.3567.02-.8005.068-1.231.094-.4305.025-.8344.025-1.1311.011-.2968-.013-.4743-.04-.6013-.053-.1972-.022-.311-.018-.4492-.025-.2532-.012-.4402.002-.5604.009-.2529.014-.4534.006-.5516.013-.1511.011-.2606.007-.3385.014-.293.025-.428.015-.5516.027-.1589.014-.2664.015-.4009.026-.3223.027-.4125.025-.498.032-.0776.006-.1834.033-.2578.051-.0698.017-.1677.054-.2242.108-.0417.039-.0293.205.0086.298.027.066.159.047.4295.049.1067.001.2399-.029.337-.04.0296-.003.065-.016.3582-.022.271-.007.7902-.003 1.0644-.005.2741-.002.2874-.007.4917-.009.2043-.002.5993-.002.8227-.004.2635-.003.3622-.012.5051-.018.1969-.009.3992-.034.5581-.038.2058-.006.3034-.032.5068-.038.0477-.002.0699-.007.3032-.009.2333-.003.677-.003.9212-.005.2752-.002.3959-.011.5459-.013.0613-.001.0923-.007.2659-.009.1735-.003.4886-.003.6509.017.1623.02.1623.06.1534.085-.0144.041-.0538.057-.0739.079-.0187.021-.1403.018-.306.02-.0861.002-.304.012-.6065.009-.1207 0-.2319-.011-.3909-.013-.0838-.001-.2041-.011-.3609-.014-.2108-.002-.4892-.02-.6459-.026-.109-.005-.3661-.025-.5493-.036-.0778-.005-.1414-.007-.2615-.014-.2883-.016-.5207-.006-.6211-.013-.0605-.004-.1404-.002-.3347-.02-.1942-.018-.5004-.053-.6937-.072-.2636-.025-.435-.031-.6406-.065-.2252-.036-.4043-.078-.5184-.09-.1625-.016-.2315-.06-.2607-.08-.0131-.009-.0158-.025-.0047-.054.0293-.077.1094-.163.3031-.337.1471-.132.4023-.342.6902-.632.2878-.289.6029-.649.8717-.978.2688-.33.4818-.618-.0741-.336-.5559.282-1.8872 1.143-2.5242 1.539-.637.397-.5394.304-.1363.005.4031-.298 1.1087-.8 1.6097-1.185.5011-.384.7762-.637.8869-.714.1106-.077.0485.029-.0789.195s-.3182.388-.7915.79c-.4733.403-1.2232.98-1.634 1.306-.4107.326-.4596.384-.4736.411-.0141.028.0081.023.0906-.066.0824-.088.2244-.261.8057-.781.5812-.52 1.5974-1.38 2.132-1.831.5346-.45.5568-.463.5682-.461.0225.004-.0152.096-.0777.219-.0337.066-.0803.136-.305.383-.2248.248-.6286.669-.8344.88-.2059.21-.2014.197-.1592.128.0422-.069.1221-.193.4628-.604.3407-.41.9398-1.102 1.2639-1.481.3242-.379.3552-.423.389-.464.0337-.04.0692-.076.3294-.374.2601-.297.7438-.857 1.0174-1.167.2736-.31.3224-.354.6138-.686.2914-.331.8239-.948 1.1071-1.279.3414-.399.3819-.465.3999-.521.0105-.033.0135-.101.0068-.182-.0069-.083-.0783-.125-.1053-.166-.0315-.047-.0672.094-.1031.159-.0322.058-.116.145-.1882.204-.0501.041-.0986.08-.1501.121-.0573.045-.1142.094-.2172.192-.0622.06-.1966.184-.3161.301-.1051.103-.342.331-.4505.45-.1227.136-.1704.177-.2197.245-.0716.097-.1432.161-.2308.273-.0657.084-.1144.126-.1726.191-.0605.067-.139.141-.2149.223-.1202.131-.3088.311-.4679.473-.0934.095-.142.144-.2851.28-.0429.041-.1565.146-.3133.3-.0742.073-.1573.155-.2603.269-.0545.061-.1524.142-.311.296-.1767.172-.2857.29-.3481.346-.1813.162-.2467.231-.3185.311-.0654.074-.1256.126-.33.324-.1886.182-.5417.539-.7356.731-.2706.267-.3822.362-.4428.427-.0586.063-.1276.11-.2642.24-.0637.06-.1367.138-.1996.201-.0803.081.1471-.165.2146-.239.0758-.083.1522-.141.2888-.257.0472-.041.0699-.072.1699-.166.2537-.236.4244-.417.4512-.438.0573-.042.1075-.091.1614-.156.0516-.063.121-.119.1882-.189.0651-.067.1299-.145.1905-.215.0564-.064.1497-.167.2554-.295.0871-.106.1546-.164.2774-.294.2152-.226.3884-.386.4331-.424.047-.04.0853-.078.1721-.158.1952-.18.3301-.333.3659-.373.0611-.069.2009-.205.2981-.311.06-.066.1542-.159.2463-.262.1449-.163.2307-.247.3117-.319.0499-.044.1252-.121.2172-.201.1968-.173.2803-.252.4391-.408.0672-.066.1235-.117.2376-.227.1765-.169.2267-.217.3029-.28.076-.063.1478-.135.2018-.195.0833-.094.1523-.15.2351-.226.097-.09.1724-.184.24-.243.0651-.056.0987-.129.1479-.194.0452-.06.0941-.119.1368-.178.0514-.07.1321-.125.1838-.174.0477-.046.0828-.099.1344-.148.0128-.012.0202-.027.0225-.012.0266.173-.1317.378-.1813.489-.0411.091-.2008.31-.3047.434-.0134.016-.0225.03-.2844.267-.262.238-.7767.699-1.0574.948-.2808.249-.3118.271-.4565.394-.1447.122-.4021.344-.548.467-.2191.185-.3116.262-.4013.343-.0306.027-.0757.062-.2228.2s-.3956.378-.5458.526c-.1972.194-.2714.269-.4116.402-.113.108-.2956.311-.3983.423-.1669.182-.2639.291-.3267.349-.0742.069-.1658.166-.2776.271-.0269.026-.045.039-.0519.039-.0459.001.0556-.108.1183-.181.0936-.111.2235-.24.3027-.326.0426-.046.1053-.089.1502-.141.0615-.07.121-.118.1725-.163.0345-.03.0873-.085.13-.124.0733-.065-.1761.186-.3018.298-.2063.184-.296.264-.4281.396-.0882.089-.1769.168-.2602.252-.0651.065-.1456.154-.2576.273-.0341.036-.1695.181-.3711.38-.1352.134-.2476.236-.3238.315-.0808.083-.1659.186-.2197.247-.0561.063-.1164.127-.3088.317-.0763.076-.1349.106-.2022.162-.0648.054-.1164.11-.206.195-.1061.101-.1925.192-.2848.287-.0743.076-.1681.17-.3001.298-.0688.066-.11.114-.1416.164-.0363.056-.0583.116-.0584.264-.0001.077.0448.126.0516.191.0062.059.047.109.0805.161.0365.056.1052.096.1591.126.0538.029.1164.047.3311.049.0455.001.0588-.007.2032-.009.1445-.002.4196-.002.568 0 .1484.002.1617.007.204.009.0424.002.1134.002.1866.002"/>
    <path stroke="#8EC488" stroke-linecap="round" d="M15.9186 199.405c-.0177.044-.0313.08-.0314.105-.0003.107.2732.02.3381.005.1158-.028.3592-.016.5355-.005.1794.011.3043.016.426.027.1075.01.2059.016.5155.027.242.009.7081.002.9548.004.2467.003.26.007.3645.009.1045.003.2997.003.4069.005.1073.002.1206.007.376.009.2553.002.7523.002 1.0173 0 .3499-.003.4843-.02.5918-.027.0948-.006.166-.02.2534-.027.0922-.007.2085-.02.3468-.036.2164-.024.3728-.006.4684-.013.0823-.002.2332-.002.3198-.005.0866-.002.1044-.006.1361-.024"/>
    <path stroke="#8EC488" stroke-linecap="round" stroke-width="10" d="M170.549 190.206c-1.195-1.501-1.875-2.389-2.01-2.664-.338-.692-.456-1.036-.527-1.075-.06-.033-.11.293-.142.945-.021.436.006 1.085.032 1.495.035.566.167.836.301 1.054.127.206.315.335.501.425.188.09.418.09.655.058.265-.035.534-.275.835-.519.307-.247.585-.642.906-1.218.425-.765.554-1.467.593-1.807.017-.149.013-.251-.019-.221-.158.15-.199.849-.244 1.735-.02.401.018.707.07 1.017.102.62.32 1.184.583 1.684.268.51.739.927 1.2 1.324.762.657 1.428.646 1.705.588.397-.081.418-.712.598-.893.039-.038.065-.076.052-.001-.044.271-.141.502-.211.566-.182.166-.52.141-.809.302-.094.051-.225.147-.379.32-.071.08-.103.161-.053.219.139.162.869.136 1.748.155.714.016.937.161 1.328.238.245.048.432.026.891.045.407.017 1.171.006 1.589.013.765.011 1.357.083 1.639.141.266.055.501.071.733.09.208.017.386.058.777.077.342.017.65.058 1.098.077.156.007.691.032 1.315.045.368.008-.592.09-.849.109-.364.028-.694.11-.913.142-.268.039-.604.083-1.051.115-.826.059-1.429-.006-1.697-.025-.217-.016-.599-.007-.821 0-.222.006-.273.019-1.12.025-.847.007-2.488.007-4.179.007"/>
    <path stroke="#8EC488" stroke-linecap="round" d="M174.483 198.304c-.01.014 0 .128-.029.215-.019.028-.038.057-.052.088-.005.017-.005.036-.005.055M186.101 195.677c.29.02.711.1.988.165.199.048.665.196 1.226.336.423.106.786.161.992.221.515.15 1.179.352 1.31.392.121.037.241.08.361.145.117.063.241.116.406.196.252.122.397.271.532.356.153.096.266.186.387.261.116.073.3.186.452.276.122.074.329.33.536.507.122.104.336.165.517.216.153.042.271.11.397.155.145.076.265.146.371.201.045.025.075.045.136.096"/>
    <path stroke="#8EC488" stroke-linecap="round" d="M182.136 196.732c.703.254 1.406.509 2.355.764.95.256 2.126.504 2.74.635.634.135.743.143.89.146.118.003.208.028.476.061.224.028.63.052.861.065.358.019.518-.024.692-.082.381-.127.505-.291.612-.432.127-.166.163-.422.209-.605.045-.18.052-.44.04-.715-.011-.241-.128-.515-.241-.775-.056-.128-.132-.17-.218-.216-.102-.055-.196-.058-.242-.049-.047.009-.125.276-.229.707-.086.356-.031.636.005.813.025.12.074.191.113.243.019.024.046.033.071.04.024.006.049.006.07-.015.054-.053.059-.223.053-.437-.006-.178-.061-.337-.132-.49-.069-.151-.198-.257-.321-.337-.108-.071-.226-.056-.309-.043-.084.012-.162.134-.281.344-.076.134-.161.337-.251.592-.089.254-.174.557-.22.777-.047.219-.053.347-.05.494.006.311.064.552.143.681.037.059.091.092.134.11.044.019.08.019.126.001.106-.042.254-.274.428-.619.081-.161.132-.303.184-.508.052-.205.101-.471.129-.682.047-.354.034-.596.013-.776-.021-.177-.089-.292-.135-.341-.019-.02-.04-.024-.058-.015-.104.051-.128.392-.187.832-.028.215-.027.415-.018.576.015.277.076.443.113.519.014.031.036.034.076-.032.04-.067.1-.206.204-.593.104-.387.249-1.017.324-1.354.075-.337.075-.361.075-.349 0 .012 0 .06-.018.312-.018.253-.054.707-.07.95-.016.243-.01.262-.004.004.006-.257.013-.79-.012-1.216-.024-.427-.078-.73-.109-.895-.044-.229-.153-.372-.233-.501-.092-.129-.202-.263-.361-.486-.031-.047-.043-.071-.056-.114"/>
    <path stroke="#8EC488" stroke-linecap="round" stroke-width="5" d="M187.497 194.877c.049 0 .159.012.275.022.123.01.269.027.462.036.107.006.411.016.791.025.14.003.228.1.387.201.31.197.545.456.616.558.051.073.083.162.098.241.015.076.058.159.125.254.082.115.233.212.334.285.121.088.168.177.263.281.066.073.15.147.23.206.065.048.146.07.22.113.079.046.147.116.22.15.076.035.147.064.184.08.139.057-.244-.058-.379-.068-.124-.008-.257-.033-.379-.049-.147-.018-.445-.021-.837-.024-.143-.001-.173-.009-.504-.012-.33-.003-.961-.003-1.3 0-.34.003-.371.009-.625.012-.255.003-.734.003-1.227.003"/>
    <path stroke="#8EC488" stroke-linecap="round" d="M190.431 193.639c.018 0 .038-.003.06-.012.038-.015.057-.036.074-.046.015-.008.033-.011.05-.016.018-.006.041-.011.059-.017.019-.007.036-.012.05-.025.012-.012.017-.03.025-.046.008-.018.021-.034.032-.05.009-.015.018-.025.022-.032.005-.007.016-.006.023-.004.015.005.021.027.033.04.012.014.019.033.024.05.004.018.016.033.033.051.024.026.042.045.056.061.014.016.026.034.043.046.016.012.033.022.049.033.005.003.009.006.01.005.013-.005-.018-.027-.034-.038-.017-.011-.036-.025-.057-.04-.03-.023-.043-.04-.057-.055-.013-.015-.029-.03-.045-.042-.016-.014-.03-.029-.052-.053-.015-.017-.021-.035-.031-.051-.01-.017-.021-.034-.028-.046-.009-.013.017.055.03.084.012.025.033.036.062.066.017.018.036.029.053.041.016.012.033.022.05.033.015.009.033.014.05.023.019.009.03.028.088.082.027.026.045.039.061.05.023.014.049.044.073.069.021.021.069.072.098.102.019.02.034.041.047.057.013.016.028.034.046.057.025.031.038.048.052.065.014.016.027.033.046.054.022.024.044.05.064.075.036.044.053.055.066.071.013.015.029.029.047.046.019.02.034.033.045.038.015.007-.021-.027-.033-.043-.011-.014-.019-.033-.03-.049-.006-.008-.016-.013-.021-.017-.019-.013.029.048.049.072.027.035.05.048.076.069.025.02.042.033.062.049.017.014.031.026.049.046.015.018.032.043.044.059.013.019.041.042.062.062.015.014.033.026.057.049.016.015.03.028.048.048.038.042.055.054.069.067.016.014.027.033.045.053.015.016.032.039.051.059.016.016.031.037.05.058.019.022.035.042.05.055.017.015.034.037.058.06.019.018.043.036.059.05.017.014.04.031.057.035.003.001.002-.01 0-.014-.009-.02-.036-.029-.056-.04-.019-.01-.034-.024-.051-.033-.019-.012-.04-.036-.059-.055-.02-.019-.041-.037-.053-.054-.013-.016-.029-.039-.049-.066-.016-.021-.023-.034-.025-.038-.007-.013.021.033.036.05.015.017.036.043.054.062.025.025.063.056.104.084.023.012.042.026.059.038.004.003.008.008.017.016"/>
    <path stroke="#8EC488" stroke-linecap="round" d="M192.16 198.431c.007.006.114.031.279.064.127.025.283.045.362.056.049.007.111.02.161.031.053.011.094.033.17.067.042.019.082.037.135.07.041.025.096.076.157.121.153.114.188.263.21.3.022.039.043.075.065.12.024.05.059.104.083.141.021.035.048.069.085.092.056.035.158.005.196-.006.036-.011.087-.011.14-.019.083-.012.121.017.147.025.035.01-.072-.014-.116-.025-.036-.009-.068.002-.085.011-.009.005-.014.015-.015.025 0 .079.218.022.294.011.111-.016.194-.005.295-.01.09-.004.263-.001.356 0 .131.003.187.014.232.019.042.004.085.014.132.019.102.01.252.001.312-.003.044-.004.08-.024.117-.044.035-.019.075-.026.112-.04.04-.015.075-.039.11-.066.035-.025.042-.072.059-.11.018-.038.033-.074.038-.112.005-.038.023-.074.023-.22 0-.062-.037-.097-.053-.134-.015-.036-.024-.075-.054-.104-.031-.032-.073-.07-.113-.103-.039-.031-.075-.057-.112-.082-.038-.025-.081-.056-.131-.094-.055-.041-.124-.077-.168-.108-.061-.044-.164-.1-.247-.157-.066-.046-.252-.175-.359-.255-.035-.027-.075-.042-.13-.047-.064-.005-.168.076-.271.198-.091.109-.022.232.04.395.05.132.149.142.19.156.018.006.034.005.042-.012.022-.047-.005-.123-.033-.197-.028-.077-.08-.153-.148-.233-.08-.094-.224-.162-.384-.235-.162-.074-.304-.086-.378-.088-.029 0-.038.008-.046.019-.04.056.014.184.087.314.041.073.126.138.22.206.092.066.201.1.306.13.103.028.178.014.211 0 .034-.015.033-.067.03-.107-.004-.047-.028-.093-.047-.115-.014-.017.025.108.104.25.097.177.194.275.225.304.064.061.146.083.311.118.068.015.112.018.134.018.042 0 .047-.075.059-.115.012-.038.025-.075.039-.114.017-.047.042-.088.047-.13.007-.07.001-.157-.005-.196-.008-.051-.037-.098-.064-.138-.027-.042-.063-.075-.094-.114-.045-.056-.118-.119-.165-.16-.047-.04-.096-.096-.148-.134-.044-.032-.11-.056-.174-.094-.049-.03-.119-.086-.309-.202-.141-.087-.19-.148-.28-.237-.044-.043-.068-.085-.106-.129-.028-.033-.086-.099-.14-.16-.034-.039-.086-.091-.147-.152-.056-.056-.15-.184-.218-.263-.068-.079-.157-.171-.193-.211-.03-.034-.06-.066-.234-.241-.083-.084-.162-.16-.198-.191-.045-.04-.079-.087-.126-.143-.063-.077-.087-.115-.107-.153-.021-.038-.048-.074-.071-.112-.022-.035-.042-.074-.06-.112-.018-.04-.042-.074-.048-.102-.008-.037.068.034.106.049.063.026.112.109.164.16.036.035.069.064.098.097.037.041.092.085.167.161.047.048.13.138.179.193.033.038.076.076.11.112.033.035.068.067.116.12.034.036.064.068.098.104.032.033.066.061.104.104.079.088.114.121.147.151.032.029.06.063.163.17.045.048.081.08.116.11.034.028.061.063.095.091.036.03.075.059.112.092.035.03.075.051.114.085.042.038.094.078.138.114.038.032.075.07.112.109.031.032.077.079.113.124.035.044.07.089.109.129.036.038.07.084.098.123.035.049.072.082.1.12.048.065.133.149.166.178.036.033.067.077.115.122.055.051.116.107.168.143.049.034.082.069.143.129.039.037.073.071.104.091.005.004.009-.01.009-.02.001-.037-.071-.083-.116-.122-.038-.034-.07-.083-.095-.12-.024-.037-.059-.065-.124-.134-.044-.046-.093-.102-.137-.14-.042-.036-.075-.071-.117-.105-.064-.053-.085-.078-.099-.094-.007-.007-.017-.009-.02-.001-.025.057.083.134.141.186.061.054.123.135.163.182.055.063.084.096.132.149.034.037.193.192.286.291.03.032.07.067.111.105.042.041.099.107.14.157.027.034.034.081.031.134-.005.082-.112.097-.174.12-.06.022-.112.026-.14.023-.035-.004-.072-.024-.203-.103-.113-.068-.318-.199-.449-.291-.131-.093-.18-.146-.267-.26-.087-.115-.21-.29-.285-.393-.093-.129-.133-.18-.164-.233-.028-.048-.099-.174-.183-.347-.071-.149-.097-.228-.128-.303-.035-.085-.068-.164-.092-.229-.036-.098-.094-.253-.113-.292-.023-.048-.047-.082-.072-.119-.024-.037-.065-.066-.102-.094-.039-.029-.084-.053-.128-.077-.075-.043-.124-.081-.174-.115-.112-.078-.192-.18-.25-.245-.029-.032-.131-.134-.222-.225-.132-.132-.193-.202-.241-.252-.051-.053-.172-.179-.233-.242-.037-.037-.061-.075-.061-.09 0-.007.012-.01.028-.011.015-.002.037-.002.048.012.027.034.02.076.039.089.037.025.074.049.112.074.037.025.074.05.112.073.034.021.074.027.096.058.034.048.084.093.12.124.057.05.122.133.158.183.028.039.061.081.101.129.075.089.125.133.168.171.049.044.084.083.143.143.038.039.072.08.107.109.038.031.077.079.191.196.049.05.128.119.184.167.032.026.062.065.107.114.059.065.098.106.194.205.181.187.227.234.276.293.037.045.131.142.219.237.176.193.221.217.273.265.052.047.115.101.154.135.061.053.129.115.238.214.017.016.016-.002.005-.022-.047-.088-.104-.117-.214-.204-.152-.12-.26-.211-.297-.236-.052-.034-.09-.066-.198-.146-.097-.072-.274-.215-.386-.307-.155-.125-.206-.181-.246-.226-.068-.076-.131-.13-.163-.159-.039-.035-.107-.11-.234-.235-.175-.173-.278-.295-.298-.318-.04-.047-.101-.104-.163-.182-.036-.045-.075-.081-.117-.128-.042-.046-.073-.084-.103-.121-.03-.039-.063-.068-.094-.106-.05-.059-.1-.115-.137-.157-.038-.042-.065-.076-.101-.11-.032-.03-.048-.068-.076-.103-.028-.034-.059-.065-.086-.102-.029-.041-.057-.075-.084-.112-.032-.037-.063-.075-.101-.12-.009-.011-.018-.02-.028-.029M183.816 198.966c.338.064.561.096.657.106.095.005.332.013.477.023.016.002.032.002.048.002"/>
    <path stroke="#8EC488" stroke-linecap="round" d="M184.308 199.019c.021.003.09.028.149.048.06.021.121.036.158.053.039.018.121.039.188.065.052.021.135.03.212.042.086.014.123.022.436.079.087.016.184.024.319.042.184.026.328.035.414.042.047.005.098.005.178.01.142.008.252.004.327.009.135.008.245.005.35.009.216.01.374.005.422.01.069.006.133.004.284.009.129.004.366.002.501 0 .159-.002.209-.008.258-.009.05-.002.131-.008.222-.01.052-.001.188-.007.376-.009.068-.001.08-.005.245-.006.165-.002.482-.002.656-.003.174-.002.195-.005.356-.007.16-.001.459-.001.62 0 .212.002.286.014.421.019.077.003.123.011.348.016.209.004.613.001.825.003.222.001.268.008.328.009.033.005.089.008.164.009.028.002.037.005.056.008"/>
    <path stroke="#8EC488" stroke-linecap="round" d="M187.6 199.327c-.065-.01-.133-.016-.479-.033-.296-.014-.837-.026-1.124-.032-.302-.007-.337-.001-.375.001-.089.003-.188.014-.272.019-.047.002-.161.007-.311.009-.14.001-.212.011-.421.02-.188.008-.542.015-.734.019-.21.003-.303-.003-.419-.002-.108.002-.22.014-.25.025-.074.027.16.095.222.112.058.016.121.017.171.022.056.005.112.014.19.018.087.006.183.011.319.016.126.004.369.002.502.003.133.002.149.005.355.006.207.002.604.002.816.003.212.002.227.005.658.007.432.001 1.278.001 1.731.004.453.003.487.009.827.013.341.003.987.003 1.334.001.347-.001.374-.004.41-.006.079-.003.142-.005.362-.009.202-.005.587-.002.791-.003.205-.002.217-.005.286-.007.196-.004.341-.004.378-.009.096-.012.165-.011.237-.019.068-.007.112-.01.158-.018.019-.002.047-.002.066-.003.018-.002.028-.005.037-.008"/>
    <path stroke="#8EC488" stroke-linecap="round" d="M185.054 199.355c-.015 0-.09.012-.185.02-.049.004-.085.023-.161.031-.125.013-.173.029-.297.034-.031.001-.053.005-.144.006-.251.005-.428.005-.466.01-.108.013-.232.011-.32.018-.071.007-.146.011-.225.019-.132.013-.213.011-.274.019-.023.002-.048.004-.168.009-.108.004-.311.001-.421 0-.109-.002-.118-.005-.244-.006-.127-.002-.37-.002-.503 0-.133.001-.148.004-.508.006-.361.001-1.066.001-1.435.003s-.381.005-.568.006c-.186.002-.546.002-.736 0-.19-.001-.2-.004-.218-.006-.019-.002-.047-.002-.075-.002"/>
    <path stroke="#8EC488" stroke-linecap="round" d="M178.507 199.467c-.025-.01-.074-.016-.251-.018-.103-.001-.215.014-.277.019-.051.004-.087.014-.148.019-.064.005-.151.001-.225-.003-.019-.002-.034-.005-.175-.007-.14-.001-.405-.001-.546 0-.175.002-.224.014-.427.019-.09.002-.133.014-.271.019-.111.004-.26.001-.318-.003-.051-.005-.088-.011-.262-.016-.162-.004-.473-.001-.639-.003-.166-.002-.179-.005-.29-.006-.111-.002-.32-.002-.423.001-.103.003-.094.01-.085.014.07.035.196.017.337.022.049.002.206.008.425.006.149-.001.273-.014.368-.018.119-.006.26-.011.363-.016.094-.004.273-.001.369 0 .14.002.215.014.288.019.07.004.151.014.239.018.086.005.179.011.367.016.175.004.514.001.698 0 .183-.002.202-.005.261-.006.157-.002.267-.005.351-.01.074-.001.212-.001.355-.001M169.47 192.25c.509.025.873.051 1.224.07.643.035 1.165.019 1.44.039.364.025.74.032 1.041.07.236.03.457.026 1.032.045.459.016 1.261.007 1.699.013.439.007.489.019.579.026.09.006.217.006.348.006M14.527 199.054c-.0189.029-.0378.071-.0614.093-.05.045-.1325.021-.1963.014-.0272-.003-.0405-.021-.0501-.035-.0177-.027-.0191-.057-.0261-.081-.0157-.053-.1345-.033-.2083-.022-.0166.003-.0354.003-.0497.01-.0144.007-.0237.021-.0286.052-.0048.03-.0048.077.0069.113.0368.113.1114.14.1468.195.037.057.1112.078.1681.104.0298.014.057.031.0736.031.0589 0-.1015-.095-.1584-.135-.0616-.043-.09-.111-.1138-.168-.0238-.057-.0615-.114-.1112-.17-.0654-.075-.0216-.228.0138-.282.0366-.057.1064-.111.1681-.159.0616-.048.1279-.095.173-.137.0653-.062.168-.157.2132-.218.0109-.015.0259-.029.0238-.031-.0385-.046-.1204.073-.1798.118-.054.041-.0876.111-.1445.156-.0145.012-.0283.026-.0285.029-.0042.049.0991-.073.1677-.13.1304-.108.1872-.175.2511-.246.0866-.096.135-.143.1802-.192.0519-.058.1254-.107.1823-.159.057-.052.1136-.09.147-.128.0355-.04-.0991.099-.1702.154-.1132.086-.1468.149-.2061.191-.075.054-.1161.109-.1918.187-.0294.031-.0617.046-.0807.053-.005.002-.0002-.016.0092-.028.0521-.041.1088-.079.1681-.121.0166-.014.0354-.033.0689-.052"/>
    <path stroke="#8EC488" d="m22.3536 190.354-8 8M22.5 190v1M97.8245 114.146l50.9995 52M104.421 108.258l-5.9996 6"/>
    <path stroke="#8EC488" stroke-linecap="round" d="M104.549 108.728c-.005-.014-.021-.042-.034-.066-.014-.024-.024-.045-.039-.108-.028-.119-.01-.14-.013-.159-.004-.021-.019-.038-.027-.056-.004-.01-.005-.019-.003-.029.004-.024.036-.039.092-.067.037-.019.064-.02.085-.026.023-.007.042-.008.061-.011.051-.006.129 0 .157.002.021.002.052.01.09.014.031.003.062.007.121.012.077.008.129.022.151.027.08.02.103.027.14.04.032.01.063.023.133.048.027.009.047.011.085.012.024.001.048-.013.065-.019.019-.005-.029-.032-.042-.05-.014-.022-.037-.039-.056-.048-.02-.009-.033-.032-.047-.051-.013-.018-.025-.037-.034-.055-.01-.02-.032-.031-.046-.047-.019-.021-.047-.04-.065-.053-.019-.012-.038-.022-.057-.032-.017-.009-.037-.016-.056-.028-.017-.011-.037-.018-.056-.029-.019-.011-.038-.017-.06-.023-.033-.008-.056-.005-.08-.009-.038-.006-.104-.005-.151-.002-.023.002-.042.009-.061.016-.02.008-.037.017-.056.023-.02.007-.042.015-.06.025-.019.009-.031.026-.047.041-.017.015-.032.04-.053.056-.018.014-.034.028-.051.043-.017.015-.039.043-.057.065-.013.017-.026.032-.041.051-.02.026-.045.061-.057.08-.006.009-.013.019-.015.026.001.002.005.002.01.002"/>
    <path fill="#88F17F" d="M173.789 83.714c.393-.3932 1.032-.3901 1.421.0069l23.609 24.0711c.532.543.288 1.459-.445 1.664l-66.197 18.516c-.991.277-1.704-.942-.976-1.67l42.588-42.588Z"/>
    <path fill="#88F17F" d="M198.752 109.324c.633-.164 1.251.314 1.251.968v82.331c0 .885-1.067 1.334-1.7.714l-66.534-65.098c-.557-.545-.305-1.488.448-1.683l66.535-17.232Z"/>
    <path stroke="#88F17F" stroke-linecap="round" d="M132.177 127.35c-.006.046-.01.154-.025.179-.015.026-.041.045-.064.064-.023.019-.051.024-.089.031-.06.012-.095-.026-.122-.043-.027-.017-.052-.035-.084-.046-.033-.013-.057-.033-.083-.046-.007-.004-.013-.011-.017-.011-.004 0-.007.006-.005.013.004.028.02.051.028.077.009.025.039.044.09.097.027.027.081.079.125.129.063.07.09.098.113.125.018.022.046.054.075.079.023.019.05.048.072.075.02.023.044.041.086.08.025.023.054.036.08.055.024.019.051.034.083.062.028.024.053.041.077.06.024.019.051.038.077.058.026.022.055.048.083.07.025.019.051.036.082.061.027.021.059.043.083.062.024.017.046.033.072.055.024.021.047.04.07.054.026.015.052.033.077.044.028.016.052.025.064.023.007-.002.013-.006.026-.024"/>
    <path stroke="#88F17F" stroke-linecap="round" d="M132.325 127.491c-.013-.002-.038-.011-.073-.018-.068-.015-.1.009-.126.012-.03.004-.068.01-.101.013-.028.003-.052.016-.078.025-.026.009-.06.019-.116.024-.092.009-.159-.001-.172-.006-.028-.012-.047-.037-.085-.079-.025-.026-.039-.054-.061-.08-.02-.023-.025-.051-.034-.077-.004-.013-.008-.025-.012-.04-.003-.009-.005-.02-.007-.043M198.178 108.264c.137.035.22.056.286.077.058.019.092.063.134.091.042.028.084.056.135.093.043.03.075.068.107.108.036.046.056.093.075.137.023.052.054.092.074.135.02.043.057.118.087.192.055.135.086.228.1.27.015.045.035.122.044.199.009.078.019.182.01.259-.002.023-.026.008-.04-.005-.055-.048-.105-.124-.197-.232-.064-.075-.128-.116-.177-.16-.08-.071-.193-.103-.24-.11-.012-.002-.026.003-.035.017-.016.081-.023.15-.026.262v-.031"/>
    <path stroke="#88F17F" stroke-linecap="round" d="M198.367 108.317c.021.003.07.01.116.029.042.018.091.041.136.056.049.017.084.065.133.112.039.038.067.079.098.117.032.04.056.084.084.127.027.04.046.083.074.126.028.042.049.083.073.126.026.043.049.084.074.126.024.042.045.084.063.126.017.04.028.084.042.126.014.042.035.084.053.126.017.041.028.084.043.126.017.044.037.091.049.138.013.049.02.093.032.136.014.05.019.1.024.189.002.02.006.03.007.148.002.118.002.343.002.575"/>
    <path stroke="#88F17F" stroke-linecap="round" d="M198.262 108.18c.119.035.168.049.212.066.057.023.093.063.135.1.038.034.066.075.086.117.02.045.047.084.07.126.022.041.04.084.064.126.025.043.039.084.062.137.022.05.029.101.044.147.006.021.014.042.021.063.003.011.006.021.01.032"/>
    <path stroke="#8EC488" stroke-width="10" d="m172.003 87.5 22.5 23M195.003 110v75"/>
    <path stroke="#8EC488" stroke-linecap="round" d="M188.683 109.839c.287.411.38.551.477.691.064.093.097.194.287.557.096.185.183.335.291.544.072.139.148.28.264.493.08.147.132.253.19.365.06.116.113.26.206.508.03.082.131.379.255.813.115.4.218.817.276 1.119.036.186.059.358.121.683.041.218.054.342.093.636.014.108.008.247.008.246 0-.148-.039-.529-.097-.901-.029-.187-.035-.297-.058-.417-.022-.111-.054-.444-.124-.879-.061-.382-.171-.786-.229-.984-.111-.375-.175-.508-.218-.633-.043-.127-.189-.448-.325-.768-.097-.225-.221-.403-.319-.563-.158-.259-.407-.617-.519-.756-.231-.287-.323-.396-.47-.555-.051-.055-.093-.113-.128-.144-.108-.096.181.309.259.442.143.242.318.581.446.795.075.124.144.313.225.535.171.463.237.679.28.823.044.149.12.299.182.5.045.144.101.28.202.683.048.191.109.342.267.961.067.26.121.444.203.82.045.208.081.362.101.521.019.154.066.353.085.5.019.147.027.272.047.431.024.197.027.368.046.559.011.111.012.198.027.214.089.09.008-.263-.015-.499-.029-.291-.078-.517-.101-.722-.048-.43-.116-.735-.132-.87-.056-.496-.139-.832-.175-1.064-.017-.114-.073-.282-.1-.457-.049-.312-.136-.539-.175-.695-.035-.141-.116-.387-.182-.574-.042-.117-.105-.271-.167-.431-.076-.196-.147-.338-.19-.45-.039-.103-.189-.39-.299-.59-.064-.116-.147-.221-.229-.345-.127-.194-.33-.443-.461-.613-.112-.144-.241-.28-.33-.385-.077-.089-.129-.174-.167-.198-.132-.08.123.287.185.419.049.104.101.209.183.352.17.301.252.477.33.614.062.109.116.221.17.334.132.27.342.701.408.857.086.204.198.504.279.76.08.251.198.575.26.815.023.088.078.248.136.477.041.162.166.568.31 1.119.089.342.105.5.152.682.039.155.046.299.077.45.039.188.039.346.051.482.006.066.019.182.019.271 0 .19-.038-.313-.065-.487-.02-.128-.058-.329-.078-.524-.014-.142-.058-.295-.089-.497-.031-.197-.109-.489-.14-.656-.021-.113-.054-.283-.085-.469-.057-.34-.117-.505-.148-.672-.027-.146-.07-.329-.116-.535-.04-.179-.101-.361-.159-.57-.061-.22-.128-.389-.175-.539-.163-.533-.263-.726-.414-1.04-.215-.446-.44-.727-.482-.777-.109-.129-.259-.345-.357-.462-.087-.104-.228-.225-.357-.357-.152-.156-.283-.24-.384-.318-.023-.018-.047-.031-.047-.012-.003.176.17.267.449.554.127.13.202.241.272.342.064.092.109.186.159.279.048.088.082.186.125.28.044.096.097.186.136.279.039.093.085.201.139.322.05.111.109.213.144.307.037.099.097.186.143.31.06.159.147.371.233.562.153.342.233.633.295.831.051.163.155.468.21.664.032.116.077.255.116.38.038.122.062.248.113.43.035.129.066.252.097.404.026.128.038.252.05.373.011.115.043.252.066.361.03.138.039.248.066.372.037.167.043.295.054.427.011.118.035.271.066.481.021.14.039.279.066.477.004.097.012.167.027.214.008.023.016.046.024.093"/>
    <path stroke="#8EC488" stroke-linecap="round" d="M189.521 111.586c-.139-.139-.418-.419-.531-.516-.084-.072-.152-.159-.225-.206-.085-.054.065.209.127.302s.124.186.186.28c.063.093.124.201.187.302.014.024.031.047.035.047.081.007-.089-.186-.171-.298-.069-.095-.128-.206-.19-.307-.059-.095-.139-.201-.217-.306-.09-.122-.225-.252-.322-.365-.073-.084-.182-.144-.248-.202-.05-.044.073.174.154.267.075.086.128.186.229.299.08.089.147.19.202.279.053.087.132.152.182.237.059.098.128.186.183.279.056.097.124.187.186.284.075.117.147.228.206.322.058.093.135.286.221.442.11.201.139.303.178.396.042.1.101.209.144.33.049.136.081.244.112.345.029.094.063.186.09.295.043.174.042.287.054.477.008.122.035.229.047.477.008.164.035.334.046.524.008.124.043.245.066.346.022.096.047.217.066.337.025.158.027.299.047.435.032.227.042.337.073.439.032.093.078.186.167.275.027.02.058.035.09.051M197.416 107.17c.061.036.097.062.13.085.029.02.062.028.099.032.034.003.062.032.092.053.028.021.05.045.091.089.031.033.056.059.08.087.031.035.078.079.141.142.072.072.096.098.114.125.023.034.061.063.088.094.029.032.058.069.104.119.032.034.054.073.082.102.026.027.049.055.075.086.025.028.048.061.071.092.022.03.041.061.061.092.023.034.054.064.072.091.02.029.051.055.074.086.022.029.041.061.063.092.023.033.047.061.068.098.019.035.048.063.069.094.02.031.041.061.099.124.033.034.044.068.061.105.014.032.029.063.046.093.016.029.027.062.041.092.014.032.032.062.045.093.012.03.02.061.03.092.011.031.021.061.031.092.011.032.023.066.031.1.007.031.013.061.023.092s.02.061.031.092c.01.031.02.061.029.1.016.067.009.12.015.162.006.037.014.068.016.189-.004.038-.009.058-.013.078-.001.009-.001.016-.001.024"/>
    <path stroke="#8EC488" stroke-linecap="round" d="M199.205 110.099c.037.016.056.022.079.027.041.01.061-.011.08-.021.018-.01.037-.014.056-.021.02-.007.038-.019.056-.027.005-.002.01-.003.013-.006.013-.013.008-.039.005-.067-.001-.021-.008-.045-.013-.068-.005-.027-.011-.056-.019-.078-.006-.02-.009-.048-.014-.073-.006-.032-.007-.064-.013-.087-.005-.023-.008-.042-.019-.061-.009-.018-.018-.038-.028-.056-.01-.018-.018-.038-.024-.057-.006-.018-.012-.037-.019-.056-.006-.018-.012-.037-.019-.056-.008-.02-.02-.037-.032-.056-.013-.019-.025-.038-.042-.06-.013-.019-.025-.038-.037-.061-.01-.019-.018-.038-.024-.057-.007-.022-.013-.047-.019-.07-.005-.019-.012-.041-.019-.061-.005-.019-.012-.038-.022-.056-.01-.019-.018-.038-.028-.057-.01-.018-.018-.037-.028-.056-.01-.018-.022-.037-.034-.056-.013-.019-.03-.037-.042-.056-.012-.018-.02-.038-.033-.056-.013-.02-.027-.038-.045-.06-.017-.021-.035-.046-.049-.066-.013-.017-.028-.034-.042-.052-.015-.021-.037-.046-.06-.074-.01-.011-.018-.02-.026-.032-.004-.007-.01-.016-.026-.035"/>
    <path stroke="#8EC488" stroke-linecap="round" d="M194.96 107.399c.757 2.883 1.165 3.587 1.378 3.746.309.23.176-.876.304-1.064.411-.601.686 1.202.75 1.221.443.131-.283-1.455-.644-2.39-.109-.281-.123-.147-.114-.017.019.259.047.702-.027 1.091-.043.233-.7-.513-1.218-.865-.174-.118-.225-.022-.243.208-.051.613.036 1.139.146 1.114.588-.136.168-1.12.159-1.185-.05-.352-.25.876-.26 1.173-.014.436.618-.81.934-1.062.26-.207.775.101 1.496.562.18.115.278.24.335.022.193-.745.038-1.425.001-1.591-.016-.075-.036-.13-.092-.149-.138-.048-.534.146-.96.414-.255.16.034.62.227.961.176.31.399.456.519.465.368.03.011-.913-.101-1.267-.141-.445.701.996.979 1.44.079.126.094.005.085-.079-.009-.084-.027-.139-.037-.204-.009-.065-.009-.138.073-.157.241-.057.472.073.528.064.266-.042-.497-.397-.785-.518-.141-.059-.269-.102-.38-.129-.379-.095-.388-.823-.453-.944-.19-.354.359.637.535.758.253.174-.267-.785-.424-.998-.101-.083-.213-.158-.388-.213-.119-.019-.303-.019-.491-.019"/>
    <path stroke="#8EC488" stroke-linecap="square" d="M168.187 90.0508c.031.0312.046.0442.062.0579.004.0033.008.0058.011.0091.003.0033.006.0071.016.0189M168.214 90.0625c.005.0052.01.0103.015.0143.004.0039.008.0065.012.0091.004.0026.008.0052.012.0118M168.179 89.9883c.01.009.033.0272.047.0422.013.0137.027.0254.039.0391.013.0138.031.0215.043.0352.013.0138.033.0266.05.0397.015.0113.028.0247.047.0416.018.0164.039.0339.055.045.016.0115.039.0305.058.0462.015.0118.032.0208.047.0345.016.0124.028.0215.036.0248.003.0019.007.0045.011.0072"/>
    <path stroke="#8EC488" stroke-linecap="round" d="M169.215 90.2012c-.109.0349-.158.0558-.2.0769-.046.0233-.056.0804-.094.1207-.035.0369-.074.0683-.107.1033-.039.0405-.124.0211-.166.0142-.044-.0072-.084-.0349-.126-.063-.041-.027-.077-.0524-.105-.0823-.004-.0038.01-.0087.02-.0071.048.0076.077.0576.125.0979.039.034.075.0683.108.105.034.0372.082.0509.116.0823.04.0211.072.0386.092.0473.011.0053.021.0122.064.0194M168.41 89.8267c.017-.0357.062-.1074.083-.1612.029-.0792.123-.1479.172-.1883.057-.0467.121-.0986.164-.1457.045-.0495.105-.0874.148-.1367.048-.0563.105-.0986.147-.1457.044-.0475.097-.0828.144-.1255.049-.045.096-.0963.139-.1434.043-.0471.083-.0963.13-.1502.043-.0491.087-.094.134-.1367.048-.0431.083-.1052.126-.1591.044-.0561.092-.0986.145-.1234.058-.0265.099-.0782.159-.132.129-.115.204-.1929.256-.2421.05-.0475.096-.0987.15-.1457.052-.0452.099-.0963.146-.139.082-.0744.19-.1994.237-.2577.065-.0803.141-.1566.276-.2911.072-.072.135-.1258.191-.1863.06-.0655.15-.1275.217-.1949.085-.0852.157-.1658.211-.2264.06-.0679.112-.1322.15-.1972.077-.1314.177-.1636.246-.213.103-.0725.217-.201.347-.3201.231-.2111.283-.2937.335-.359.094-.1188.262-.2755.322-.3228.064-.0494.137-.1095.229-.2014.146-.146.191-.1996.249-.2646.046-.0516.076-.1098.112-.1637.037-.056.085-.1075.132-.1502s.096-.0829.15-.1188c.054-.0359.108-.0717.162-.1076.054-.0359.107-.0628.172-.0696.058-.006.19-.0246.285-.0113.056.008.107.0359.184.1007.054.0465.098.0831.152.1144.055.0321.094.0851.139.1366.058.0659.094.1188.119.1726.013.0282.029.0539.034.0829.005.0334-.023.0651-.049.0875-.07.0577-.206.1031-.45.2925-.129.101-.318.2912-.662.6712-.345.3799-.833.9524-1.074 1.2339-.24.2816-.218.255-.106.0993.111-.1557.311-.4397.52-.7125.209-.2728.422-.5257.565-.7093.22-.2823.287-.4264.29-.429.069-.0771-.096.257-.297.5644-.15.2311-.422.6003-.579.8278-.157.2276-.197.2986-.002.0023.194-.2962.625-.9619.853-1.3114.239-.365.3-.3766.383-.4391.019-.0144.025-.0314.009.0017-.015.0331-.055.113-.164.2917-.11.1787-.287.4538-.543.7864-.255.3325-.584.7142-.775.9285-.192.2144-.236.2499-.399.4079-.162.1581-.442.4377-.752.7193-.311.2815-.643.5567-.697.5031-.054-.0535.181-.444.462-.8582.281-.4141.6-.8401.772-1.0729.171-.2328.184-.2594.193-.2554.038.017-.03.2314-.129.5178-.045.1325-.098.2331-.159.3412-.06.108-.131.219-.308.4314-.176.2125-.456.5231-.589.6698-.133.1467-.11.1201.019-.0733.129-.1935.364-.5529.745-1.031.38-.478.9-1.0638 1.167-1.3478.267-.284.267-.2485.248-.1925-.049.1361-.128.2491-.204.3762-.051.0859-.12.2203-.383.564-.263.3437-.716.894-1.058 1.2773-.341.3833-.559.583-.742.7347-.183.1517-.325.2493-.422.3129-.145.0939-.233.131-.289.1445-.02.0048-.025-.0131-.025-.0289 0-.0337.089-.1272.161-.2193.068-.0857-.325.1622-.518.3078-.074.0556-.095.079-.111.097-.016.0181-.025.0314.144-.1015.168-.1329.515-.4125.691-.5432.176-.1307.171-.1041.162-.077-.009.027-.022.0536-.095.145-.074.0914-.207.2467-.324.391-.118.1444-.215.2731-.299.3727-.144.1715-.281.2835-.39.3663-.154.1157-.33.1462-.462.1843-.029.0083-.048.0068.112-.1441.159-.1508.497-.4526.719-.6413.223-.1888.32-.2553.448-.3207.128-.0653.284-.1275.337-.1306.053-.0032 0 .0545-.183.1996-.182.1451-.493.3759-.649.4836-.155.1078-.146.0856-.126.0587.02-.027.051-.0581.083-.0901"/>
    <path stroke="#8EC488" d="m160.646 163.354-55-55"/>
    <path stroke="#8EC488" stroke-linecap="round" d="M144.256 160.441c-.086-.063-.155-.132-.241-.227-.092-.101-.184-.18-.281-.284-.071-.074-.167-.161-.236-.201-.077-.045-.137-.092-.203-.135-.085-.055-.164-.152-.259-.238-.049-.045-.106-.114-.192-.243-.26-.39-.407-.595-.482-.684-.062-.073-.291-.311-.482-.513-.061-.065-.176-.171-.32-.283-.144-.113-.314-.226-.445-.319-.364-.259-.521-.368-.627-.44-.189-.128-.261-.221-.404-.341-.39-.328-.471-.431-.572-.529-.075-.072-.135-.16-.246-.284-.113-.124-.198-.232-.336-.384-.105-.116-.264-.256-.368-.342-.141-.118-.258-.207-.336-.284-.083-.083-.18-.158-.275-.258-.1-.107-.198-.204-.31-.344-.175-.22-.284-.308-.39-.428-.084-.095-.164-.173-.258-.275-.184-.201-.336-.334-.408-.397-.23-.202-.301-.281-.445-.396-.108-.086-.206-.183-.307-.27-.116-.099-.226-.206-.367-.332-.267-.241-.353-.385-.451-.511-.072-.094-.143-.184-.412-.51-.074-.089-.213-.264-.402-.511-.103-.134-.167-.219-.228-.302-.062-.087-.134-.164-.203-.256-.124-.165-.402-.418-.497-.531-.026-.037-.055-.066-.086-.092-.014-.014-.026-.031-.072-.083"/>
    <path stroke="#8EC488" stroke-linecap="round" d="M143.695 159.766c.159.103.291.253.343.366.056.121.146.282.198.424.044.121.098.225.136.395.044.196.075.367.155.578.019.051.015.09-.009.104-.124.078-.258-.051-.395-.145-.261-.179-.296-.338-.395-.451-.09-.104-.202-.217-.358-.386-.102-.112-.183-.235-.273-.353-.105-.139-.202-.249-.338-.395-.086-.092-.156-.165-.147-.198.062-.228.395.22.522.328.153.131.203.269.283.386.094.14.23.287.338.419.092.111.165.244.245.367.068.104.108.226.17.339.059.109.108.226.169.362.053.118.108.231.146.344.019.056.047.113.052.132.053.203-.23-.329-.329-.465-.084-.116-.137-.231-.198-.344-.059-.109-.127-.226-.202-.339-.076-.113-.151-.226-.25-.343-.101-.122-.155-.25-.23-.363-.076-.113-.151-.225-.235-.343-.123-.146-.198-.278-.32-.414-.029-.033-.047-.061-.067-.09M195.039 184.167c.355.755.498 1.04.565 1.165.117.219.218.4.271.534.099.245.125.462.169.715.015.084.009.182.014.25.007.103.031-.258.141-1.171.063-.523.295-1.142.408-1.495.114-.354.14-.415.167-.447.027-.032.053-.032.089.048.035.079.079.237.12.473.04.236.075.544.089 1.135.014.59.005 1.454-.004 1.925-.009.471-.018.524-.022.525-.052.009.013-.213.079-.694.052-.376.128-1.019.187-1.421.079-.545.165-.785.227-.945.025-.064.045-.09.071-.028.027.061.062.211.102.852.041.641.085 1.768.112 2.38.027.612.036.673.045.692.008.018.017-.008.114-.555.097-.546.282-1.612.395-2.218.113-.607.148-.721.197-.675.111.259.201.899.241 1.276.014-.047.014-.575-.04-1.12"/>
    <path stroke="#8EC488" stroke-linecap="round" d="M197.255 185.288c-.018 0-.335.053-.833.133-.407.065-.891-.106-1.271-.142-.076-.007-.146-.026-.588-.101-.441-.076-1.252-.208-1.695-.285-.606-.104-.8-.13-.938-.161-.188-.043-.334-.058-.467-.08s-.241-.049-.326-.045c-.109.005.252.218.427.325.303.186.778.667.97.831.048.042.102.076.358.279s.714.573.972.777c.388.306.569.444.885.684.208.158.343.241.731.567.345.289.953.872 1.288 1.181.367.338.442.379.5.393.137.032-.022-.404-.291-.961-.221-.457-.666-1.243-1.064-1.872-.399-.629-.751-1.069-.981-1.34-.23-.271-.327-.359-.381-.365-.097-.01-.037.384.095.952.081.342.256.778.404 1.106.247.548.451.766.505.793.028.015 0-.167-.114-.513-.079-.237-.274-.574-.58-1.033-.307-.459-.739-1.023-.948-1.269-.209-.246-.182-.158.038.226.221.385.635 1.063.861 1.421.227.359.253.376.262.363.01-.013.001-.057-.193-.436-.194-.38-.573-1.093-.803-1.509-.288-.521-.4-.64-.44-.649-.208-.047.048.709-.044 1.132-.026.121-.312-.148-.421-.222-.109-.074-.109.005-.087.165.055.399.129.669.178.639.374-.234.315-.68.493-.863.071-.073.169-.068.24-.059.037.005.071.027.446.348.375.322 1.089.948 1.545 1.389.455.441.631.679.744.85.171.259.255.561.344.939.082.345.142.778.258 1.183.054.187.09.247.112.301.011.027.031.053.049.027.018-.026.035-.106.062-.265.027-.16.062-.398.115-1.371.054-.972.124-2.672.35-2.592.226.08.604 1.991.804 2.936.199.945.208.866.204.037-.004-.829-.022-2.406-.035-2.576-.014-.169-.023 1.117-.01 1.088.013-.029.049-1.412.08-1.322.031.089.058 1.692.049 1.826-.008.135-.052-1.248-.066-1.511-.014-.264.004.635.013.406.009-.228.009-1.611.013-1.65.005-.039.014 1.309.009 1.378-.004.069-.022-1.182-.035-1.857-.014-.675-.022-.737-.031.068-.009.805-.018 2.479-.018 2.645 0 .167.009-1.225-.009-1.009-.017.217-.061 2.085-.058 2.413.004.327.057-.941.088-1.621.032-.68.041-.733.037-.038-.005.695-.022 2.14.008 2.268.031.127.11-1.106.155-1.204.046-.098.054.977.055 1.566 0 .659-.018.767-.027.794-.004.011-.026-.061-.057-.586-.032-.525-.076-1.521-.103-1.5-.027.02-.036 1.086-.049 1.71-.017.774-.049 1.051-.054 1.26-.002.13-.022.236-.026.251-.014.045-.013-.206-.075-.689-.062-.482-.177-1.284-.236-1.741-.059-.457-.059-.545-.063-.613-.004-.067-.013-.111-.031.43-.018.541-.044 1.669-.066 1.937-.023.268-.041-.357-.032-.446.009-.089.044.378.066.636.023.258.032.293.041.33"/>
    <path stroke="#8EC488" stroke-linecap="round" d="M198.349 190.093c.044.256.151.755.187.88.096.337.249.89.24.926-.042.175-.293-.204-.422-.311-.24-.199-.501-.523-.734-.756-.257-.257-.543-.56-.725-.747-.109-.112-.227-.187-.312-.281-.085-.093-.182-.173-.462-.448-.178-.175-.414-.489-.756-.93-.276-.355-.414-.539-.508-.682-.073-.111-.191-.258-.294-.391-.163-.213-.324-.32-.621-.529-.51-.357-.726-.494-1.06-.699-.187-.115-.316-.223-.494-.383-.203-.182-.356-.276-.503-.391-.298-.235-.503-.365-.609-.459-.099-.086-.232-.164-.348-.244-.053-.036-.106-.063-.16-.081-.027-.009-.053-.017-.107-.053M190.536 184.894c-.001.009-.008.028-.015.046-.005.01-.015.015-.017.028-.002.008-.001.019.001.025.008.021.045.036.085.065.025.018.075.05.194.113.069.037.08.067.11.096.023.023.064.058.161.132.096.074.247.185.379.272.132.086.24.146.302.179.077.04.098.048.11.051h.019"/>
    <path stroke="#8EC488" stroke-linecap="round" d="M199.123 184.32c.071 0 .177.009.199.028.041.037.05.099.067.161.015.053.034.104.049.157.022.076.036.171.053.228.023.077.021.164.024.415 0 .097-.019.155-.022.565 0 .086.007.099.009.219.002.12.002.346 0 .469s-.006.136-.009.394c-.002.258-.002.762 0 1.027.003.279.011.422.009.627-.002.144-.019.236-.026.393-.006.157-.002.377.005.559.001.043.006.064.008.285.002.22.002.64.004.862.003.265.019.324.026.386.011.112.002.282-.004.375-.002.021-.007.034-.009.166-.002.132-.002.384 0 .52.002.149.011.309.009.537-.002.121-.032.171-.064.22-.033.051-.099.07-.148.106-.046.034-.083.074-.172.089-.092.016-.212.002-.273-.015-.054-.014-.104-.033-.155-.053-.056-.021-.102-.065-.152-.099-.051-.034-.089-.072-.13-.11-.039-.037-.087-.081-.137-.119-.013-.009-.026-.017-.036-.027-.011-.011-.02-.024-.001-.039.11-.086.205-.078.311-.108.152-.042.238-.089.323-.114.02-.006.042-.005.055.008.025.089.034.19.045.271.002.03.002.076.002.123"/>
    <path stroke="#8EC488" stroke-linecap="round" d="M198.423 192.699c-.114-.008-.173-.05-.218-.099-.041-.045-.091-.079-.137-.106-.074-.044-.145-.138-.189-.178-.045-.041-.095-.116-.142-.176-.037-.047-.089-.097-.161-.174-.056-.059-.148-.16-.22-.233-.051-.051-.102-.093-.151-.14-.049-.046-.095-.101-.14-.142-.044-.04-.091-.087-.15-.148-.047-.049-.093-.104-.142-.144-.136-.112-.366-.375-.435-.443-.049-.049-.11-.089-.175-.15-.112-.105-.168-.168-.25-.25-.075-.075-.168-.159-.286-.276-.072-.07-.128-.133-.189-.201-.054-.059-.129-.127-.318-.318-.075-.076-.129-.132-.17-.18-.072-.088-.167-.189-.296-.324-.059-.063-.117-.132-.17-.185-.074-.074-.18-.197-.237-.269-.076-.095-.201-.215-.276-.299-.04-.045-.086-.083-.133-.135-.079-.089-.144-.142-.193-.187-.082-.075-.193-.193-.242-.239-.064-.062-.133-.153-.178-.193-.086-.079-.205-.206-.248-.252-.06-.067-.135-.119-.201-.191-.039-.043-.074-.072-.146-.137-.294-.268-.347-.359-.42-.423-.098-.087-.224-.241-.269-.292-.05-.058-.141-.169-.256-.294-.021-.024-.03-.036-.038-.049-.009-.013-.017-.026-.039-.051"/>
    <path stroke="#8EC488" stroke-linecap="round" d="M191.608 185.821c.132.118.25.219.356.315.041.037.081.07.274.205.174.121.512.336.704.459.288.184.416.266.512.33.039.026.083.055.135.093.071.051.243.169.442.324.093.071.129.109.209.182.283.262.347.35.426.435.162.175.282.242.421.272.13.027.213-.072.351-.219.113-.12.299-.341.486-.571.188-.229.368-.464.522-.634.154-.169.275-.265.361-.33.13-.097.222-.136.294-.145.03-.004.046.025.059.05.038.148.055.385.039.624-.017.13-.051.277-.085.428M190.9 185.276c-.05 0-.141-.008-.161-.026-.04-.035-.075-.085-.109-.097-.054-.019.1.075.15.113.051.039.089.104.122.15.033.045.081.077.119.12.041.048.096.11.142.164.036.042.08.077.126.11.045.033.085.073.142.126.1.093.144.144.183.194.054.066.107.116.168.183.063.069.148.158.195.197.054.045.095.083.174.158.063.06.118.099.209.183.056.053.114.105.154.154.048.06.094.093.146.138.093.083.138.133.191.19.101.108.168.16.207.203.06.066.138.122.191.181.121.134.18.194.227.251.067.081.115.112.296.295.068.07.13.109.182.151.047.038.086.069.144.108.104.073.207.186.256.233.041.04.077.083.167.179.055.059.099.117.131.164.031.047.067.083.134.158.086.096.158.126.268.181.109.055.292.115.406.143.068.007.103.015.152.002.037-.014.1-.041.164-.069"/>
    <g clip-path="url(#c)">
      <path fill="#FCFFCF" d="m21.5 13 .3 1.2 1.2.3-1.2.3-.3 1.2-.3-1.2-1.2-.3 1.2-.3.3-1.2Z"/>
    </g>
    <g clip-path="url(#d)">
      <path fill="#FCFFCF" d="m72.5 20 .3 1.2 1.2.3-1.2.3-.3 1.2-.3-1.2-1.2-.3 1.2-.3.3-1.2Z"/>
    </g>
    <g clip-path="url(#e)">
      <path fill="#FCFFCF" d="m106.471 19.4088 1.041.6671 1.079-.6051-.667 1.0416.605 1.0788-1.041-.6671-1.079.6051.667-1.0416-.605-1.0788Z"/>
    </g>
    <g clip-path="url(#f)">
      <path fill="#FCFFCF" d="m93.0912 46.0292 1.0416.6671 1.0788-.6051-.6671 1.0416.6051 1.0788-1.0416-.6671-1.0788.6051.6671-1.0416-.6051-1.0788Z"/>
    </g>
    <g clip-path="url(#g)">
      <path fill="#FCFFCF" d="m87.0912 32.0292 1.0416.6671 1.0788-.6051-.6671 1.0416.6051 1.0788-1.0416-.6671-1.0788.6051.6671-1.0416-.6051-1.0788Z"/>
    </g>
    <g clip-path="url(#h)">
      <path fill="#FCFFCF" d="m66.0912 56.0292 1.0416.6671 1.0788-.6051-.6671 1.0416.6051 1.0788-1.0416-.6671-1.0788.6051.6671-1.0416-.6051-1.0788Z"/>
    </g>
    <g clip-path="url(#i)">
      <path fill="#FCFFCF" d="m23.7087 62.678.6179 1.0716 1.2363-.0409-1.0716.6178.0409 1.2363-.6178-1.0716-1.2363.041 1.0716-.6179-.041-1.2363Z"/>
    </g>
    <g clip-path="url(#j)">
      <path fill="#FCFFCF" d="m49.4424 67.4117.6179 1.0716 1.2362-.0409-1.0715.6179.0409 1.2362-.6179-1.0716-1.2363.041 1.0716-.6179-.0409-1.2363Z"/>
    </g>
    <g clip-path="url(#k)">
      <path fill="#FCFFCF" d="m91.4424 65.4117.6179 1.0716 1.2362-.0409-1.0715.6179.0409 1.2362-.6179-1.0716-1.2363.041 1.0716-.6179-.0409-1.2363Z"/>
    </g>
    <g clip-path="url(#l)">
      <path fill="#FCFFCF" d="m117.442 51.4117.618 1.0716 1.237-.0409-1.072.6179.041 1.2362-.618-1.0716-1.236.041 1.071-.6179-.041-1.2363Z"/>
    </g>
    <g clip-path="url(#m)">
      <path fill="#FCFFCF" d="m124.442 31.4117.618 1.0716 1.237-.0409-1.072.6179.041 1.2362-.618-1.0716-1.236.041 1.071-.6179-.041-1.2363Z"/>
    </g>
    <g clip-path="url(#n)">
      <path fill="#FCFFCF" d="m140.442 23.4117.618 1.0716 1.237-.0409-1.072.6179.041 1.2362-.618-1.0716-1.236.041 1.071-.6179-.041-1.2363Z"/>
    </g>
    <g clip-path="url(#o)">
      <path fill="#FCFFCF" d="m135.442 68.4117.618 1.0716 1.237-.0409-1.072.6179.041 1.2362-.618-1.0716-1.236.041 1.071-.6179-.041-1.2363Z"/>
    </g>
    <g clip-path="url(#p)">
      <path fill="#FCFFCF" d="m149.442 43.4117.618 1.0716 1.237-.0409-1.072.6179.041 1.2362-.618-1.0716-1.236.041 1.071-.6179-.041-1.2363Z"/>
    </g>
    <g clip-path="url(#q)">
      <path fill="#FCFFCF" d="m168.442 16.4117.618 1.0716 1.237-.0409-1.072.6179.041 1.2362-.618-1.0716-1.236.041 1.071-.6179-.041-1.2363Z"/>
    </g>
    <g clip-path="url(#r)">
      <path fill="#FCFFCF" d="m171.442 36.4117.618 1.0716 1.237-.0409-1.072.6179.041 1.2362-.618-1.0716-1.236.041 1.071-.6179-.041-1.2363Z"/>
    </g>
    <g clip-path="url(#s)">
      <path fill="#FCFFCF" d="m182.442 60.4117.618 1.0716 1.237-.0409-1.072.6179.041 1.2362-.618-1.0716-1.236.041 1.071-.6179-.041-1.2363Z"/>
    </g>
    <g clip-path="url(#t)">
      <path fill="#FCFFCF" d="m15.0912 41.0292 1.0416.6671 1.0788-.6051-.6671 1.0416.6051 1.0788-1.0416-.6671-1.0788.6051.6671-1.0416-.6051-1.0788Z"/>
    </g>
    <g clip-path="url(#u)">
      <path fill="#FCFFCF" d="m52.2499 17.2008-.34 1.1893.8894.8596-1.1893-.3399-.8596.8894.3399-1.1893-.8894-.8597 1.1893.34.8597-.8894Z"/>
    </g>
    <g clip-path="url(#v)">
      <path fill="#FCFFCF" d="m185.442 25.4117.618 1.0716 1.237-.0409-1.072.6179.041 1.2362-.618-1.0716-1.236.041 1.071-.6179-.041-1.2363Z"/>
    </g>
    <g clip-path="url(#w)">
      <path fill="#FCFFCF" d="m164.442 57.4117.618 1.0716 1.237-.0409-1.072.6179.041 1.2362-.618-1.0716-1.236.041 1.071-.6179-.041-1.2363Z"/>
    </g>
  </g>
  <defs>
    <clipPath id="a">
      <path fill="#fff" d="M0 0h200v200H0z"/>
    </clipPath>
    <clipPath id="c">
      <path fill="#fff" d="M20 13h3v3h-3z"/>
    </clipPath>
    <clipPath id="d">
      <path fill="#fff" d="M71 20h3v3h-3z"/>
    </clipPath>
    <clipPath id="e">
      <path fill="#fff" d="m105.38 20.4379 2.18247063-2.05835419 2.05835418 2.18247063-2.18247062 2.05835419z"/>
    </clipPath>
    <clipPath id="f">
      <path fill="#fff" d="m92 47.0583 2.18247063-2.05835419 2.05835418 2.18247063-2.18247062 2.05835419z"/>
    </clipPath>
    <clipPath id="g">
      <path fill="#fff" d="m86 33.0583 2.18247063-2.05835419 2.05835418 2.18247063-2.18247062 2.05835419z"/>
    </clipPath>
    <clipPath id="h">
      <path fill="#fff" d="m65 57.0583 2.18247063-2.05835419 2.05835418 2.18247063-2.18247062 2.05835419z"/>
    </clipPath>
    <clipPath id="i">
      <path fill="#fff" d="m22.2664 63.0898 2.88476446-.82348894.82348894 2.88476445-2.88476446.82348895z"/>
    </clipPath>
    <clipPath id="j">
      <path fill="#fff" d="m48 67.8235 2.88476446-.82348894.82348894 2.88476445-2.88476446.82348895z"/>
    </clipPath>
    <clipPath id="k">
      <path fill="#fff" d="m90 65.8235 2.88476446-.82348894.82348894 2.88476445-2.88476446.82348895z"/>
    </clipPath>
    <clipPath id="l">
      <path fill="#fff" d="m116 51.8235 2.88476446-.82348894.82348894 2.88476445-2.88476446.82348895z"/>
    </clipPath>
    <clipPath id="m">
      <path fill="#fff" d="m123 31.8235 2.88476446-.82348894.82348894 2.88476445-2.88476446.82348895z"/>
    </clipPath>
    <clipPath id="n">
      <path fill="#fff" d="m139 23.8235 2.88476446-.82348894.82348894 2.88476445-2.88476446.82348895z"/>
    </clipPath>
    <clipPath id="o">
      <path fill="#fff" d="m134 68.8235 2.88476446-.82348894.82348894 2.88476445-2.88476446.82348895z"/>
    </clipPath>
    <clipPath id="p">
      <path fill="#fff" d="m148 43.8235 2.88476446-.82348894.82348894 2.88476445-2.88476446.82348895z"/>
    </clipPath>
    <clipPath id="q">
      <path fill="#fff" d="m167 16.8235 2.88476446-.82348894.82348894 2.88476445-2.88476446.82348895z"/>
    </clipPath>
    <clipPath id="r">
      <path fill="#fff" d="m170 36.8235 2.88476446-.82348894.82348894 2.88476445-2.88476446.82348895z"/>
    </clipPath>
    <clipPath id="s">
      <path fill="#fff" d="m181 60.8235 2.88476446-.82348894.82348894 2.88476445-2.88476446.82348895z"/>
    </clipPath>
    <clipPath id="t">
      <path fill="#fff" d="m14 42.0583 2.18247063-2.05835419 2.05835418 2.18247063-2.18247062 2.05835419z"/>
    </clipPath>
    <clipPath id="u">
      <path fill="#fff" d="m50.9507 16.451 2.59836414 1.49950118-1.49950117 2.59836414-2.59836415-1.49950118z"/>
    </clipPath>
    <clipPath id="v">
      <path fill="#fff" d="m184 25.8235 2.88476446-.82348894.82348894 2.88476445-2.88476446.82348895z"/>
    </clipPath>
    <clipPath id="w">
      <path fill="#fff" d="m163 57.8235 2.88476446-.82348894.82348894 2.88476445-2.88476446.82348895z"/>
    </clipPath>
  </defs>
</svg>
