<svg width="24" height="24" viewBox="0 0 24 24" fill="none" xmlns="http://www.w3.org/2000/svg">
<path d="M0.724609 0.688721C1.12486 0.308405 1.85948 0.431352 2.36523 0.963135L11.8809 10.968L21.6729 0.963135C22.1933 0.431369 22.9354 0.313171 23.3301 0.699463C23.7247 1.08574 23.6229 1.82983 23.1025 2.36157L13.2598 12.4182L22.5156 22.1506C23.0215 22.6825 23.1072 23.4224 22.707 23.803C22.3068 24.1835 21.5722 24.0613 21.0664 23.5295L11.8594 13.8489L2.37207 23.5442C1.85173 24.0759 1.1096 24.1939 0.714844 23.8079C0.32016 23.4216 0.422052 22.6775 0.942383 22.1458L10.4805 12.3987L0.916016 2.34106C0.410193 1.80917 0.324428 1.06932 0.724609 0.688721Z" fill="#252525"/>
</svg>
