<svg width="25" height="25" viewBox="0 0 25 25" fill="none" xmlns="http://www.w3.org/2000/svg">
<path d="M16.5508 16.5508C16.9023 16.1993 17.4727 16.1993 17.8242 16.5508L22.5117 21.2383C22.8632 21.5898 22.8632 22.1602 22.5117 22.5117C22.1602 22.8632 21.5898 22.8632 21.2383 22.5117L16.5508 17.8242C16.1993 17.4727 16.1993 16.9023 16.5508 16.5508ZM11.458 4.30762C15.4067 4.30762 18.6082 7.50931 18.6084 11.458C18.6084 15.4068 15.4068 18.6084 11.458 18.6084C7.50934 18.6082 4.30762 15.4067 4.30762 11.458C4.30778 7.50943 7.50944 4.30782 11.458 4.30762ZM11.458 6.1084C8.50355 6.1086 6.10856 8.50355 6.1084 11.458C6.1084 14.4126 8.50345 16.8074 11.458 16.8076C14.4127 16.8076 16.8076 14.4127 16.8076 11.458C16.8075 8.50342 14.4126 6.1084 11.458 6.1084Z" fill="white"/>
</svg>
