<svg width="26" height="25" viewBox="0 0 26 25" fill="none" xmlns="http://www.w3.org/2000/svg">
<g clip-path="url(#clip0_58_301)">
<path d="M13.0056 6.88477C9.45651 6.88477 6.59378 9.38965 6.59378 12.4951C6.59378 15.6006 9.45651 18.1055 13.0056 18.1055C16.5547 18.1055 19.4174 15.6006 19.4174 12.4951C19.4174 9.38965 16.5547 6.88477 13.0056 6.88477ZM13.0056 16.1426C10.7121 16.1426 8.83709 14.5068 8.83709 12.4951C8.83709 10.4834 10.7065 8.84766 13.0056 8.84766C15.3047 8.84766 17.1741 10.4834 17.1741 12.4951C17.1741 14.5068 15.2991 16.1426 13.0056 16.1426ZM21.1753 6.65527C21.1753 7.38281 20.5056 7.96387 19.6797 7.96387C18.8482 7.96387 18.1842 7.37793 18.1842 6.65527C18.1842 5.93262 18.8538 5.34668 19.6797 5.34668C20.5056 5.34668 21.1753 5.93262 21.1753 6.65527ZM25.4219 7.9834C25.327 6.23047 24.8695 4.67773 23.4018 3.39844C21.9398 2.11914 20.1652 1.71875 18.1619 1.63086C16.0971 1.52832 9.90852 1.52832 7.84378 1.63086C5.84602 1.71387 4.07146 2.11426 2.60383 3.39355C1.1362 4.67285 0.684187 6.22559 0.58374 7.97852C0.466553 9.78516 0.466553 15.2002 0.58374 17.0068C0.678606 18.7598 1.1362 20.3125 2.60383 21.5918C4.07146 22.8711 5.84044 23.2715 7.84378 23.3594C9.90852 23.4619 16.0971 23.4619 18.1619 23.3594C20.1652 23.2764 21.9398 22.876 23.4018 21.5918C24.8639 20.3125 25.3215 18.7598 25.4219 17.0068C25.5391 15.2002 25.5391 9.79004 25.4219 7.9834ZM22.7545 18.9453C22.3192 19.9023 21.4766 20.6396 20.3773 21.0254C18.7311 21.5967 14.8248 21.4648 13.0056 21.4648C11.1864 21.4648 7.27459 21.5918 5.63396 21.0254C4.54021 20.6445 3.69758 19.9072 3.25673 18.9453C2.60383 17.5049 2.7545 14.0869 2.7545 12.4951C2.7545 10.9033 2.60941 7.48047 3.25673 6.04492C3.692 5.08789 4.53463 4.35059 5.63396 3.96484C7.28017 3.39355 11.1864 3.52539 13.0056 3.52539C14.8248 3.52539 18.7366 3.39844 20.3773 3.96484C21.471 4.3457 22.3137 5.08301 22.7545 6.04492C23.4074 7.48535 23.2567 10.9033 23.2567 12.4951C23.2567 14.0869 23.4074 17.5098 22.7545 18.9453Z" fill="url(#paint0_linear_58_301)"/>
</g>
<defs>
<linearGradient id="paint0_linear_58_301" x1="1.00003" y1="23" x2="26" y2="2" gradientUnits="userSpaceOnUse">
<stop stop-color="#F58529"/>
<stop offset="0.0709135" stop-color="#EF6E3E"/>
<stop offset="0.141827" stop-color="#E95852"/>
<stop offset="0.283654" stop-color="#DD2A7B"/>
<stop offset="0.641827" stop-color="#8134AF"/>
<stop offset="0.73137" stop-color="#6948C2"/>
<stop offset="0.742563" stop-color="#664AC4"/>
<stop offset="0.753756" stop-color="#634CC6"/>
<stop offset="0.776142" stop-color="#5D51CB"/>
<stop offset="0.820913" stop-color="#515BD4"/>
</linearGradient>
<clipPath id="clip0_58_301">
<rect width="25" height="25" fill="white" transform="translate(0.5)"/>
</clipPath>
</defs>
</svg>
